<svg width="23" height="23" viewBox="0 0 23 23" fill="none"
    xmlns="http://www.w3.org/2000/svg">
    <path d="M20.3375 3.25H2.46249C1.32341 3.25 0.399994 4.17341 0.399994 5.3125V20.4375C0.399994 21.5766 1.32341 22.5 2.46249 22.5H20.3375C21.4766 22.5 22.4 21.5766 22.4 20.4375V5.3125C22.4 4.17341 21.4766 3.25 20.3375 3.25Z" stroke="#1A1A1A" stroke-width="0.8"/>
    <path d="M0.399994 8.75H22.4" stroke="#1A1A1A"/>
    <path d="M5.89999 0.5V6" stroke="#1A1A1A" stroke-linecap="round"/>
    <path d="M16.9 0.5V6" stroke="#1A1A1A" stroke-linecap="round"/>
    <path d="M5.21249 11.5H3.83749C3.4578 11.5 3.14999 11.8078 3.14999 12.1875V13.5625C3.14999 13.9422 3.4578 14.25 3.83749 14.25H5.21249C5.59219 14.25 5.89999 13.9422 5.89999 13.5625V12.1875C5.89999 11.8078 5.59219 11.5 5.21249 11.5Z" stroke="#1A1A1A" stroke-width="0.8"/>
    <path d="M12.0875 11.5H10.7125C10.3328 11.5 10.025 11.8078 10.025 12.1875V13.5625C10.025 13.9422 10.3328 14.25 10.7125 14.25H12.0875C12.4672 14.25 12.775 13.9422 12.775 13.5625V12.1875C12.775 11.8078 12.4672 11.5 12.0875 11.5Z" stroke="#1A1A1A" stroke-width="0.8"/>
    <path d="M18.9625 11.5H17.5875C17.2078 11.5 16.9 11.8078 16.9 12.1875V13.5625C16.9 13.9422 17.2078 14.25 17.5875 14.25H18.9625C19.3422 14.25 19.65 13.9422 19.65 13.5625V12.1875C19.65 11.8078 19.3422 11.5 18.9625 11.5Z" stroke="#1A1A1A" stroke-width="0.8"/>
    <path d="M5.21249 16.3125H3.83749C3.4578 16.3125 3.14999 16.6203 3.14999 17V18.375C3.14999 18.7547 3.4578 19.0625 3.83749 19.0625H5.21249C5.59219 19.0625 5.89999 18.7547 5.89999 18.375V17C5.89999 16.6203 5.59219 16.3125 5.21249 16.3125Z" stroke="#1A1A1A" stroke-width="0.8"/>
    <path d="M12.0875 16.3125H10.7125C10.3328 16.3125 10.025 16.6203 10.025 17V18.375C10.025 18.7547 10.3328 19.0625 10.7125 19.0625H12.0875C12.4672 19.0625 12.775 18.7547 12.775 18.375V17C12.775 16.6203 12.4672 16.3125 12.0875 16.3125Z" stroke="#1A1A1A" stroke-width="0.8"/>
    <path d="M18.9625 16.3125H17.5875C17.2078 16.3125 16.9 16.6203 16.9 17V18.375C16.9 18.7547 17.2078 19.0625 17.5875 19.0625H18.9625C19.3422 19.0625 19.65 18.7547 19.65 18.375V17C19.65 16.6203 19.3422 16.3125 18.9625 16.3125Z" stroke="#1A1A1A" stroke-width="0.8"/>
</svg>
