<svg width="21" height="21" viewBox="0 0 21 21" fill="none"
    xmlns="http://www.w3.org/2000/svg">
    <path d="M13.8333 20.4579V12.0548C13.8333 11.7762 13.7163 11.509 13.5079 11.312C13.2995 11.1151 13.0169 11.0044 12.7222 11.0044H8.27778C7.9831 11.0044 7.70048 11.1151 7.49211 11.312C7.28374 11.509 7.16667 11.7762 7.16667 12.0548V20.4579" stroke="black" stroke-linecap="round" stroke-linejoin="round"/>
    <path d="M0.5 8.90364C0.499923 8.59805 0.570371 8.29612 0.706431 8.01892C0.842491 7.74171 1.04089 7.49591 1.28778 7.29865L9.06555 0.996289C9.46665 0.675823 9.97484 0.5 10.5 0.5C11.0252 0.5 11.5333 0.675823 11.9344 0.996289L19.7122 7.29865C19.9591 7.49591 20.1575 7.74171 20.2936 8.01892C20.4296 8.29612 20.5001 8.59805 20.5 8.90364V18.3572C20.5 18.9143 20.2659 19.4487 19.8491 19.8427C19.4324 20.2366 18.8671 20.458 18.2778 20.458H2.72222C2.13285 20.458 1.56762 20.2366 1.15087 19.8427C0.734126 19.4487 0.5 18.9143 0.5 18.3572V8.90364Z" stroke="black" stroke-linecap="round" stroke-linejoin="round"/>
</svg>
