<svg width="24" height="24" viewBox="0 0 24 24" fill="none" xmlns="http://www.w3.org/2000/svg">
<path d="M16.75 0.5H6.75C3.29822 0.5 0.5 3.29822 0.5 6.75V16.75C0.5 20.2018 3.29822 23 6.75 23H16.75C20.2018 23 23 20.2018 23 16.75V6.75C23 3.29822 20.2018 0.5 16.75 0.5Z" stroke="#1A1A1A"/>
<path d="M11.75 13C13.8211 13 15.5 11.3211 15.5 9.25C15.5 7.17893 13.8211 5.5 11.75 5.5C9.67893 5.5 8 7.17893 8 9.25C8 11.3211 9.67893 13 11.75 13Z" stroke="#1A1A1A"/>
<path d="M4.25 20.5C4.25 17.1667 6.75 15.5 11.75 15.5C16.75 15.5 19.25 17.1667 19.25 20.5" stroke="#1A1A1A" stroke-linecap="round"/>
</svg>
