<svg width="23" height="23" viewBox="0 0 23 23" fill="none"
    xmlns="http://www.w3.org/2000/svg">
    <path d="M5.08331 12.0554H2.63887C2.1326 12.0554 1.7222 12.5404 1.7222 13.1388V18.1943C1.7222 18.7926 2.1326 19.2776 2.63887 19.2776H5.08331C5.58957 19.2776 5.99998 18.7926 5.99998 18.1943V13.1388C5.99998 12.5404 5.58957 12.0554 5.08331 12.0554Z" stroke="#1A1A1A"/>
    <path d="M12.4167 6.27759H9.97224C9.46598 6.27759 9.05557 6.76261 9.05557 7.36092V18.1943C9.05557 18.7926 9.46598 19.2776 9.97224 19.2776H12.4167C12.9229 19.2776 13.3334 18.7926 13.3334 18.1943V7.36092C13.3334 6.76261 12.9229 6.27759 12.4167 6.27759Z" stroke="#1A1A1A"/>
    <path d="M19.75 0.5H17.3056C16.7993 0.5 16.3889 0.985025 16.3889 1.58333V18.1944C16.3889 18.7928 16.7993 19.2778 17.3056 19.2778H19.75C20.2563 19.2778 20.6667 18.7928 20.6667 18.1944V1.58333C20.6667 0.985025 20.2563 0.5 19.75 0.5Z" stroke="#1A1A1A"/>
    <path d="M0.5 22.1665H22.5" stroke="#1A1A1A" stroke-linecap="round"/>
</svg>
